<svg width="532.32" height="97.95" xmlns="http://www.w3.org/2000/svg">

 <g>
  <title>background</title>
  <rect fill="none" id="canvas_background" height="402" width="582" y="-1" x="-1"/>
 </g>
 <g>
  <title>Layer 1</title>
  <g id="svg_1">
   <path id="svg_2" d="m42.61,0c27.71,0 49,19.07 49,47.37s-21.3,48 -49,48l-31.14,0c-6.26,-0.03 -11.47,-4.2 -11.47,-11.5l0,-72c0,-7.25 5.21,-11.87 11.47,-11.87l31.14,0z" fill="#ff6900"/>
   <path id="svg_3" d="m74.49,37.09c-0.15,1.19 -1.49,1.19 -2.09,0.15c-1.94,-3.28 -4.47,-3.87 -8.49,-4.17c-3,-0.15 -6.55,0.15 -9.83,0.15a0.67,0.67 0 0 1 -0.74,-0.6c0.6,-2.83 3,-8 5.51,-8.49c1.19,-0.15 3.87,-0.45 5.36,-0.45c6.85,0 10.58,7.9 10.28,13.41m-38.73,27a47.71,47.71 0 0 0 15.49,1.49a41.26,41.26 0 0 0 19.22,-6.26c-2.24,5.68 -10.73,9.21 -18.78,10.1c0,0.45 -0.15,0.74 -0.15,1.19c6.11,-0.3 11.92,-2.38 14.6,-4.17c-1.49,5.51 -8.94,7.75 -15.79,8.19a8.85,8.85 0 0 1 -0.6,1.19a34.28,34.28 0 0 0 10,-1.34c-3.14,5.82 -16.55,9.84 -27.87,4.52a35.74,35.74 0 0 0 3.87,-14.9m37.4,-39.67a13.1,13.1 0 0 0 -9.39,-3.58c-4.47,0 -8.19,1.19 -13.71,1.34c-3.72,0.15 -7.15,-8 -11.62,-9.09c-1.93,-4.31 -6.43,-4.91 -9.08,-2.67c-2.53,-1.49 -6.41,-0.74 -6.55,2.09c-2.83,-0.89 -6.55,0.6 -4.92,4.47c-7,0.15 -8.19,6.41 -3.58,7c-6.11,3.43 -3.28,9.39 1.79,8.19c0.91,8.94 4.91,20.56 -1.64,23.39c-0.74,0.3 -3.72,1 -9.39,-0.3c-1.64,-0.45 -3.43,-0.89 -5.07,-1.34l0,4.62c4.92,1.19 9.83,2.09 13,1.79c8.64,-0.89 9.09,-8 8.64,-14.3s-2.53,-13.26 -1.79,-18.32l-0.3,-0.3c-3.13,3.28 -5.21,2.38 -5.51,1.34c-0.45,-2.09 3.28,-4.77 5.36,-5.66c0,-0.15 0.15,-0.3 0.15,-0.45c-1.94,0.3 -4.32,0 -4.47,-1.34c-0.15,-1.64 3.28,-3.28 7.75,-2.83c0.15,0 0.15,-0.15 0.3,-0.15l-0.89,-0.45c-1.19,-0.6 -1.49,-1.64 -1,-2.23a3.19,3.19 0 0 1 2.68,-1a10,10 0 0 1 4,0.89c0.15,0 0.15,-0.15 0.3,-0.15c-0.3,-0.3 -0.74,-0.6 -0.89,-0.89a1.13,1.13 0 0 1 0.09,-1.5a3.11,3.11 0 0 1 3.58,0.6l0.74,0.74a0.55,0.55 0 0 0 0.45,-0.15a1.61,1.61 0 0 1 -0.45,-1a0.89,0.89 0 0 1 0.6,-1.19a1.81,1.81 0 0 1 1.79,0.74a7.27,7.27 0 0 1 0.88,1.86c-3.13,0.3 -6.85,1.49 -9.09,4.62l0,0a14.2,14.2 0 0 0 -1.79,12.22c0.89,4.62 2.68,8.94 4.32,13.41l0,0l0,0.15l0,0c3.56,10.27 10.44,35.59 -22.78,49a13.65,13.65 0 0 0 5.51,1.34l3.43,0a43,43 0 0 0 14.75,-12.21c15.2,6.7 29,3.28 35,-7.75a14.56,14.56 0 0 0 6.7,-10.73a11.15,11.15 0 0 0 2.24,-9.65c-0.15,-0.6 -0.74,-0.6 -1.64,-0.15c-12.36,7.45 -23.24,8.64 -36.2,4.77a97.9,97.9 0 0 0 -1.79,-12.07c-0.3,-5.21 1.34,-7.75 10.88,-4.62c6.26,1.64 9.09,4.47 11.32,6c1,0.74 2.38,1.64 3.13,1c0.45,-0.3 0.6,-1.19 0.6,-2.23c-0.15,-2.83 -1.49,-7.6 -2.68,-9.39a78,78 0 0 1 8.49,0c3.58,0.6 3.87,2.53 4.32,3.28c1,3 6.85,2.23 7.3,-0.3c0.89,-5.21 1.19,-12.07 -3.87,-16.83m-66.15,44.66a54.89,54.89 0 0 0 -7,0l0,3.13c4,-0.89 6.55,-1.34 6.55,-1.34l0.45,-1.79z"/>
   <path id="svg_4" d="m44.25,36.5c-5.21,-1.19 -11,-2.68 -14,-7.15c0,-0.15 -0.15,-0.15 -0.3,-0.15a0.15,0.15 0 0 0 -0.15,0.15a1.34,1.34 0 0 0 0.15,0.74l-0.45,0.15c-0.74,-1.19 -1,-2.53 -0.15,-3.58c1.19,-1.49 3.43,-1.34 4.92,-0.45l-0.15,0.45a3.27,3.27 0 0 0 -2.09,0.15a0.81,0.81 0 0 0 -0.3,1.19c2.53,4.77 10,5.81 18.77,5.07a1.05,1.05 0 0 0 1.19,-0.89a16.88,16.88 0 0 1 4.17,-7.9a23.35,23.35 0 0 1 -4.32,0.3c-4.47,0.3 -7.15,-0.3 -7.9,-0.89l0.15,-0.45c0.45,0.15 1,0.15 1,0s0,-0.3 -0.15,-0.45c-0.84,-0.79 -4.72,-4.79 -4.72,-4.79c-0.45,-3.43 -5.36,-3.43 -7.3,-0.15l-0.6,-0.15a5,5 0 0 1 0.74,-1.79c-4,0.89 -6.41,4.62 -6.85,8c-1.79,15.2 21.3,11.62 27.86,17.73c0.15,0.15 0.45,0.6 0.6,0.3s-2.68,-3.87 -10.13,-5.51m-8,-18.17c1,-0.3 2.68,0.74 3.43,2.38s0.6,3.28 -0.45,3.72s-2.72,-0.67 -3.47,-2.36c-0.15,-0.3 -0.15,-0.45 -0.3,-0.74l0.15,0a1,1 0 0 0 1,0.3c0.45,-0.3 0.3,-0.89 0,-1.49s-0.74,-0.89 -1.19,-0.89l-0.15,-0.15a2,2 0 0 1 0.89,-0.74" fill="#fff"/>
   <path id="svg_5" d="m70.46,59.29a41.26,41.26 0 0 1 -19.22,6.26a52.7,52.7 0 0 1 -15.49,-1.49a22.74,22.74 0 0 1 -0.45,4.47a62,62 0 0 0 13.26,1.64c-0.3,1.64 -2.09,7.6 -6.41,11.32c8,0.3 15.34,-2.83 17.58,-7a30.45,30.45 0 0 1 -10,1.34c0.15,-0.45 0.45,-0.74 0.6,-1.19c6.85,-0.3 14.3,-2.53 15.79,-8.19c-2.68,1.79 -8.49,3.87 -14.6,4.17c0,-0.45 0.15,-0.74 0.15,-1.19c8,-1 16.54,-4.47 18.77,-10.13" fill="#fff"/>
   <path fill="#ffffff" id="svg_6" d="m512.81,31a19.74,19.74 0 0 1 -5.49,-0.72l5.37,-11.94l5.37,11.94a18,18 0 0 1 -5.26,0.72m19,9.08l-12.54,-27.31c-1.43,-3 -3.34,-4.3 -6.21,-4.3l-0.48,0c-3,0 -4.9,1.31 -6.33,4.3l-12.54,27.35c-1.19,2.75 -0.36,5.14 2.15,6.09a4.21,4.21 0 0 0 5.73,-2.27l2.87,-6a28.8,28.8 0 0 0 8.6,1.31a24.34,24.34 0 0 0 8.24,-1.25l2.75,6a4.21,4.21 0 0 0 5.73,2.27c2.27,-1 3.22,-3.46 2,-6.09m-45.15,-2.51l-2.39,0l0,-25.14a4.42,4.42 0 0 0 -4.62,-4.53a4.32,4.32 0 0 0 -4.54,4.54l0,25.07l-16,0l0,-25.08a4.66,4.66 0 0 0 -9.32,0l0,29.47a4.32,4.32 0 0 0 4.54,4.54l27.83,0l0,4.06a4.32,4.32 0 0 0 4.54,4.54a4.26,4.26 0 0 0 4.54,-4.54l0,-8.45c0,-3 -1.79,-4.54 -4.54,-4.54m-46.34,0l-2.39,0l0,-25.08a4.42,4.42 0 0 0 -4.66,-4.53a4.32,4.32 0 0 0 -4.54,4.54l0,25.07l-16,0l0,-25.08a4.66,4.66 0 0 0 -9.32,0l0,29.47a4.32,4.32 0 0 0 4.54,4.54l27.83,0l0,4.06a4.32,4.32 0 0 0 4.54,4.54a4.26,4.26 0 0 0 4.54,-4.54l0,-8.45c0,-3 -1.79,-4.54 -4.54,-4.54m-51.48,-29.26l-0.36,0c-2.75,0 -4.54,1.31 -6.45,4.06l-15.03,21.38l0,-20.9a4.48,4.48 0 1 0 -9,0l0,28.43a4.83,4.83 0 0 0 5.14,5.14l0.48,0c2.87,0 4.78,-1.43 6.57,-4.06l15,-21.38l0,20.9a4.42,4.42 0 1 0 8.84,0l0,-28.43c0,-3.11 -1.91,-5.14 -5.26,-5.14m-44.91,0l-25.8,0a4.26,4.26 0 0 0 -4.54,4.54l0,29.5a4.42,4.42 0 0 0 4.66,4.54a4.32,4.32 0 0 0 4.54,-4.54l0,-25.08l16.48,0l0,25.08a4.36,4.36 0 0 0 4.66,4.54a4.45,4.45 0 0 0 4.66,-4.66l0,-29.5a4.33,4.33 0 0 0 -4.66,-4.42m-66.7,29.86c-6.09,0 -10.39,-4.54 -10.39,-10.75a10.24,10.24 0 0 1 10.39,-10.63c6.09,0 10.39,4.54 10.39,10.63s-4.18,10.75 -10.39,10.75m0,-30.1a19.13,19.13 0 0 0 -19.59,19.47c0,11.23 8.48,19.47 19.59,19.47a19.3,19.3 0 0 0 19.59,-19.59c-0.12,-11.23 -8.6,-19.35 -19.59,-19.35m-37.62,29.5l-15,0a29.09,29.09 0 0 0 2.27,-6.45a53.48,53.48 0 0 0 1,-9.44l0.12,-4.42l11.7,0l-0.09,20.31zm11.59,0l-2.39,0l0,-24.72a4.32,4.32 0 0 0 -4.54,-4.54l-21.14,0c-2.51,0 -4.18,1.67 -4.18,4.54l0,6a55.06,55.06 0 0 1 -0.88,11.2a18.58,18.58 0 0 1 -3,7.52l-1,0c-3,0 -4.42,1.91 -4.42,4.54l0,8.48a4.32,4.32 0 0 0 4.54,4.54a4.26,4.26 0 0 0 4.54,-4.54l0,-4.06l27.83,0l0,4.06a4.32,4.32 0 0 0 4.51,4.54a4.26,4.26 0 0 0 4.54,-4.54l0,-8.48c0.12,-2.63 -1.31,-4.54 -4.42,-4.54m-62,0.6c-6.09,0 -10.39,-4.54 -10.39,-10.75a10.24,10.24 0 0 1 10.39,-10.63c6.09,0 10.39,4.54 10.39,10.63s-4.06,10.75 -10.39,10.75m0,-30.1a19.13,19.13 0 0 0 -19.59,19.47c0.02,11.23 8.47,19.42 19.61,19.42a19.3,19.3 0 0 0 19.59,-19.59c0,-11.23 -8.48,-19.35 -19.59,-19.35m-37.86,29.5l-15,0a29.09,29.09 0 0 0 2.27,-6.45a53.48,53.48 0 0 0 1,-9.44l0.12,-4.42l11.7,0l-0.09,20.31zm11.59,0l-2.39,0l0,-24.67a4.32,4.32 0 0 0 -4.54,-4.54l-21.14,0c-2.51,0 -4.18,1.67 -4.18,4.54l0,6c0,4.3 0,7.64 -0.84,11.23a18.58,18.58 0 0 1 -3,7.52l-1,0c-3,0 -4.42,1.91 -4.42,4.54l0,8.48a4.32,4.32 0 0 0 4.64,4.51a4.26,4.26 0 0 0 4.54,-4.54l0,-4.06l27.83,0l0,4.06a4.32,4.32 0 0 0 4.54,4.54a4.26,4.26 0 0 0 4.54,-4.54l0,-8.48c0,-2.63 -1.43,-4.54 -4.54,-4.54"/>
   <path fill="#ffffff" id="svg_7" d="m131.4,90.45c2.8,0 4,-1.68 5,-1.68c0.55,0 0.92,0.42 0.92,1.08c0,1.18 -2.65,2.59 -5.92,2.59c-5.4,0 -8.18,-4.64 -8.18,-9.49s2.78,-9.49 8.31,-9.49c3.3,0 5.4,1.78 5.4,2.73a1,1 0 0 1 -0.94,1.1c-1,0 -1.57,-1.83 -4.46,-1.83c-4.14,0 -5.85,3.93 -5.85,7.5s1.76,7.49 5.72,7.49z"/>
   <path fill="#ffffff" id="svg_8" d="m146.1,90.45c3.07,0 3.85,-1.89 4.72,-1.89a0.92,0.92 0 0 1 0.84,1c0,1.13 -2.86,2.86 -5.58,2.86c-4.46,0 -6.4,-3.43 -6.4,-7.13s2.36,-7.13 6.27,-7.13s6,3.43 6,6.79c0,0.81 -0.29,1.23 -1.28,1.23l-8.67,0a4,4 0 0 0 4.1,4.27zm-0.16,-10.28c-2.86,-0.1 -3.88,2.18 -4,4.3l7.65,0c0.05,-1.99 -1.1,-4.3 -3.64,-4.3l-0.01,0z"/>
   <path fill="#ffffff" id="svg_9" d="m153.73,79.39a1,1 0 0 1 1.15,-1l8.12,0a1,1 0 0 1 1.15,1a1,1 0 0 1 -1.15,1.07l-2.9,0l0,10.62c0,0.84 -0.45,1.36 -1.15,1.36s-1.13,-0.52 -1.13,-1.36l0,-10.62l-2.94,0a1,1 0 0 1 -1.15,-1.07z"/>
   <path fill="#ffffff" id="svg_10" d="m177.63,88.12c0,2.2 -1.6,4.17 -5.32,4.17l-4.22,0c-0.89,0 -1.31,-0.42 -1.31,-1.21l0,-11.54c0,-0.84 0.42,-1.36 1.13,-1.36s1.15,0.52 1.15,1.36l0,4.46l3.77,0c3.31,0 4.8,1.73 4.8,4.12zm-2.28,0c0,-1.36 -0.89,-2.12 -3,-2.12l-3.28,0l0,4.22l3.28,0c1.65,0.02 3,-0.51 3,-2.08l0,-0.02z"/>
   <path fill="#ffffff" id="svg_11" d="m189.35,92.44c-0.71,0 -1.13,-0.52 -1.13,-1.36l0,-11.51c0,-0.84 0.42,-1.23 1.15,-1.23l8.76,0a1,1 0 0 1 1,1l0,11.74c0,0.84 -0.42,1.36 -1.15,1.36s-1.13,-0.52 -1.13,-1.36l0,-10.64l-6.4,0l0,10.64c0.05,0.84 -0.4,1.36 -1.1,1.36z"/>
   <path fill="#ffffff" id="svg_12" d="m204.34,92.44c-0.66,0 -1.07,-0.37 -1.07,-1.34l0,-11.56c0,-0.87 0.42,-1.36 1.13,-1.36s1.15,0.5 1.15,1.36l0,8.89l6.5,-9.36c0.39,-0.52 0.73,-0.89 1.39,-0.89s1.1,0.45 1.1,1.28l0,11.62c0,0.84 -0.42,1.36 -1.15,1.36s-1.13,-0.52 -1.13,-1.36l0,-9l-6.61,9.44c-0.39,0.61 -0.65,0.92 -1.31,0.92z"/>
   <path fill="#ffffff" id="svg_13" d="m218.62,91.29l0,-11.75c0,-0.84 0.42,-1.36 1.13,-1.36s1.15,0.52 1.15,1.36l0,10.65l6.4,0l0,-10.65c0,-0.84 0.42,-1.36 1.13,-1.36s1.15,0.52 1.15,1.36l0,10.65l1.1,0a1.09,1.09 0 0 1 1.13,1.13l0,3.51c0,0.89 -0.42,1.36 -1.1,1.36s-1.1,-0.47 -1.1,-1.36l0,-2.55l-9.94,0a1,1 0 0 1 -1.05,-0.99z"/>
   <path fill="#ffffff" id="svg_14" d="m234.71,91.29l0,-11.75c0,-0.84 0.42,-1.36 1.13,-1.36s1.15,0.52 1.15,1.36l0,10.65l6.4,0l0,-10.65c0,-0.84 0.42,-1.36 1.13,-1.36s1.15,0.52 1.15,1.36l0,10.65l1.1,0a1.09,1.09 0 0 1 1.13,1.13l0,3.51c0,0.89 -0.42,1.36 -1.1,1.36s-1.1,-0.47 -1.1,-1.36l0,-2.55l-9.94,0a1,1 0 0 1 -1.05,-0.99z"/>
   <path fill="#ffffff" id="svg_15" d="m256.39,90.45c3.07,0 3.85,-1.89 4.72,-1.89a0.92,0.92 0 0 1 0.84,1c0,1.13 -2.86,2.86 -5.58,2.86c-4.46,0 -6.4,-3.43 -6.4,-7.13s2.36,-7.13 6.27,-7.13s6,3.43 6,6.79c0,0.81 -0.29,1.23 -1.29,1.23l-8.68,0a4,4 0 0 0 4.12,4.27zm-0.16,-10.28c-2.86,-0.1 -3.88,2.18 -4,4.3l7.66,0c0.04,-1.99 -1.12,-4.3 -3.66,-4.3z"/>
   <path fill="#ffffff" id="svg_16" d="m266.74,78.18a1.11,1.11 0 0 1 1.15,1.23l0,0.68l0.05,0a3.81,3.81 0 0 1 3.72,-1.91c3.78,0 6,3.43 6,7.13s-2.18,7.13 -6,7.13a4.56,4.56 0 0 1 -3.72,-1.89l-0.05,0l0,6.16a1.16,1.16 0 1 1 -2.31,0l0,-17.3a1.11,1.11 0 0 1 1.16,-1.23zm4.75,12.27c2.83,0 3.83,-2.78 3.83,-5.14s-1,-5.14 -3.83,-5.14s-3.83,2.78 -3.83,5.14s1,5.14 3.83,5.14z"/>
   <path fill="#ffffff" id="svg_17" d="m282.18,92.44c-0.66,0 -1.08,-0.37 -1.08,-1.34l0,-11.56c0,-0.87 0.42,-1.36 1.13,-1.36s1.15,0.5 1.15,1.36l0,8.89l6.5,-9.36a1.66,1.66 0 0 1 1.39,-0.89c0.63,0 1.1,0.45 1.1,1.28l0,11.62c0,0.84 -0.42,1.36 -1.15,1.36s-1.13,-0.52 -1.13,-1.36l0,-9l-6.61,9.44c-0.38,0.61 -0.67,0.92 -1.3,0.92z"/>
   <path fill="#ffffff" id="svg_18" d="m297.54,92.44c-0.66,0 -1.08,-0.37 -1.08,-1.34l0,-11.56c0,-0.87 0.42,-1.36 1.13,-1.36s1.15,0.5 1.15,1.36l0,8.89l6.5,-9.36a1.66,1.66 0 0 1 1.39,-0.89c0.63,0 1.1,0.45 1.1,1.28l0,11.62c0,0.84 -0.42,1.36 -1.15,1.36s-1.13,-0.52 -1.13,-1.36l0,-9l-6.61,9.44c-0.39,0.61 -0.67,0.92 -1.3,0.92zm1.94,-19.37c0.81,0 1.26,1.49 2.73,1.49s1.91,-1.49 2.73,-1.49a0.85,0.85 0 0 1 0.81,0.94c0,1.55 -2.1,2.54 -3.54,2.54s-3.54,-1 -3.54,-2.54a0.85,0.85 0 0 1 0.81,-0.94z"/>
   <path fill="#ffffff" id="svg_19" d="m332.16,92.44c-0.6,0 -0.89,-0.29 -1.36,-1l-8.94,-13.53l-0.05,0l0,13.14c0,0.92 -0.42,1.39 -1.15,1.39s-1.15,-0.47 -1.15,-1.39l0,-16.28a1.16,1.16 0 0 1 1.15,-1.31c0.66,0 1,0.34 1.44,1l8.83,13.4l0.07,0l0,-13c0,-0.92 0.42,-1.39 1.15,-1.39s1.15,0.47 1.15,1.39l0,16.22c-0.01,1.02 -0.48,1.36 -1.14,1.36zm13,-13.84a4.85,4.85 0 0 1 -4.85,5.14c-3.12,0 -4.82,-2.54 -4.82,-5.19s1.7,-5.16 4.82,-5.16s4.85,2.54 4.85,5.21zm-0.37,8a1.06,1.06 0 0 1 -1.15,1l-6.64,0a1,1 0 1 1 0,-2l6.61,0a1.06,1.06 0 0 1 1.19,1.05l-0.01,-0.05zm-7.16,-8.1c0,1.73 0.87,3.46 2.67,3.46s2.7,-1.68 2.7,-3.36s-0.84,-3.49 -2.67,-3.49s-2.69,1.71 -2.69,3.44l-0.01,-0.05z"/>
   <path fill="#ffffff" id="svg_20" d="m355.69,74.62a1,1 0 0 1 1,-1l4,0c0.45,0 0.71,0.05 0.71,0.63l0,17a1.16,1.16 0 1 1 -2.31,0l0,-15.64l-2.41,0a1,1 0 0 1 -0.99,-0.99z"/>
   <path fill="#ffffff" id="svg_21" d="m375.51,78.34l4,0c2.62,0 4.46,1 4.46,3.51a3,3 0 0 1 -2.12,2.94l0,0.05c2.33,0.29 3.25,1.63 3.25,3.38c0,2.31 -1.81,4.06 -5.32,4.06l-4.22,0c-0.89,0 -1.31,-0.42 -1.31,-1.21l0,-11.55c-0.05,-0.79 0.37,-1.18 1.26,-1.18zm6.16,3.78c0,-1.23 -1,-1.83 -2.46,-1.83l-2.73,0l0,3.83l2.33,0c1.71,-0.01 2.86,-0.46 2.86,-2.01l0,0.01zm1.1,6.13c0,-1.36 -0.89,-2.2 -3.22,-2.2l-3.07,0l0,4.3l3.28,0c1.78,-0.01 3.01,-0.66 3.01,-2.1z"/>
   <path fill="#ffffff" id="svg_22" d="m397.11,92.44a1.11,1.11 0 0 1 -1.11,-1.23l0,-16.33a1.14,1.14 0 0 1 1.23,-1.26l4.56,0a5.72,5.72 0 0 1 6.06,5.87a5.81,5.81 0 0 1 -6,5.82l-3.57,0l0,5.9a1.11,1.11 0 0 1 -1.17,1.23zm8.39,-13a3.66,3.66 0 0 0 -3.93,-3.88l-3.3,0l0,7.71l3.41,0a3.72,3.72 0 0 0 3.81,-3.78l0.01,-0.05z"/>
   <path fill="#ffffff" id="svg_23" d="m416.13,78.18c3.93,0 6.13,3.43 6.13,7.13s-2.2,7.13 -6.13,7.13s-6.13,-3.44 -6.13,-7.13s2.2,-7.13 6.13,-7.13zm0,12.27c2.83,0 3.83,-2.78 3.83,-5.14s-1,-5.14 -3.83,-5.14s-3.83,2.78 -3.83,5.14s1,5.14 3.83,5.14z"/>
   <path fill="#ffffff" id="svg_24" d="m431.44,78.18c2.36,0 3.75,0.81 3.75,1.76a1,1 0 0 1 -0.94,1c-0.89,0 -1.23,-0.73 -2.8,-0.73c-2.86,0 -4,2.78 -4,5.14s1.13,5.14 4,5.14c1.63,0 2,-0.79 2.78,-0.79a0.86,0.86 0 0 1 0.89,1c0,0.87 -1.28,1.81 -3.67,1.81c-4.25,0 -6.29,-3.43 -6.29,-7.13s2.03,-7.2 6.28,-7.2z"/>
   <path fill="#ffffff" id="svg_25" d="m444.13,78.18c2.36,0 3.75,0.81 3.75,1.76a1,1 0 0 1 -0.94,1c-0.89,0 -1.23,-0.73 -2.8,-0.73c-2.86,0 -4,2.78 -4,5.14s1.13,5.14 4,5.14c1.63,0 2,-0.79 2.78,-0.79a0.86,0.86 0 0 1 0.89,1c0,0.87 -1.28,1.81 -3.67,1.81c-4.25,0 -6.29,-3.43 -6.29,-7.13s2.03,-7.2 6.28,-7.2z"/>
   <path fill="#ffffff" id="svg_26" d="m452.2,92.44c-0.66,0 -1.08,-0.37 -1.08,-1.34l0,-11.56c0,-0.87 0.42,-1.36 1.13,-1.36s1.15,0.5 1.15,1.36l0,8.89l6.5,-9.36a1.66,1.66 0 0 1 1.39,-0.89c0.63,0 1.1,0.45 1.1,1.28l0,11.62c0,0.84 -0.42,1.36 -1.15,1.36s-1.13,-0.52 -1.13,-1.36l0,-9l-6.61,9.44c-0.39,0.61 -0.67,0.92 -1.3,0.92z"/>
   <path fill="#ffffff" id="svg_27" d="m467.56,92.44c-0.66,0 -1.08,-0.37 -1.08,-1.34l0,-11.56c0,-0.87 0.42,-1.36 1.13,-1.36s1.15,0.5 1.15,1.36l0,8.89l6.5,-9.36a1.66,1.66 0 0 1 1.39,-0.89c0.63,0 1.1,0.45 1.1,1.28l0,11.62c0,0.84 -0.42,1.36 -1.15,1.36s-1.13,-0.52 -1.13,-1.36l0,-9l-6.61,9.44c-0.39,0.61 -0.68,0.92 -1.3,0.92z"/>
  </g>
 </g>
</svg>